<svg width="270" height="154" viewBox="0 0 270 154" fill="none" xmlns="http://www.w3.org/2000/svg">
<g filter="url(#filter0_d_0_1)">
<path d="M179 142L101.924 4L256.076 4L179 142Z" fill="#FF7200"/>
</g>
<rect y="4" width="179" height="138" fill="#FF7200"/>
<path d="M52.8413 120H25.1416V69.3154H52.8413V72.5396H28.7124V91.7456H51.4893V94.9697H28.7124V116.776H52.8413V120ZM72.6367 100.621L59.4976 82.3159H63.5884L74.7515 98.2285L85.9146 82.3159H89.9707L76.9355 100.621L90.8027 120H86.6772L74.7515 103.082L62.895 120H58.8735L72.6367 100.621ZM115.556 81.5879C120.409 81.5879 124.165 83.2173 126.823 86.4761C129.504 89.7349 130.844 94.5422 130.844 100.898C130.844 105.151 130.209 108.756 128.938 111.714C127.666 114.65 125.852 116.88 123.495 118.405C121.16 119.931 118.352 120.693 115.07 120.693C112.805 120.693 110.829 120.358 109.142 119.688C107.478 118.995 106.091 118.07 104.982 116.915C103.873 115.736 103.017 114.442 102.417 113.032H102.174C102.243 114.349 102.301 115.724 102.347 117.157C102.393 118.59 102.417 119.942 102.417 121.213V136.675H98.8804V82.3159H101.792L102.208 89.8389H102.417C103.041 88.4059 103.919 87.0539 105.051 85.7827C106.184 84.5116 107.617 83.4946 109.35 82.7319C111.083 81.9692 113.152 81.5879 115.556 81.5879ZM115.105 84.6733C112.262 84.6733 109.893 85.2974 107.998 86.5454C106.126 87.7703 104.728 89.5731 103.803 91.9536C102.902 94.311 102.44 97.2 102.417 100.621V101.21C102.417 104.885 102.867 107.947 103.769 110.397C104.693 112.824 106.068 114.638 107.894 115.84C109.743 117.042 112.031 117.643 114.758 117.643C117.439 117.643 119.704 116.984 121.553 115.667C123.402 114.349 124.812 112.442 125.783 109.946C126.753 107.45 127.239 104.423 127.239 100.863C127.239 95.5706 126.222 91.5492 124.188 88.7988C122.177 86.0485 119.15 84.6733 115.105 84.6733Z" fill="black"/>
<path d="M91.0308 28.562H94.3223L102.443 49.7876C102.936 51.0386 103.366 52.1973 103.735 53.2637C104.125 54.3096 104.463 55.2734 104.75 56.1553C105.038 57.0166 105.273 57.8062 105.458 58.5239H105.643C105.95 57.5806 106.36 56.3706 106.873 54.894C107.386 53.397 107.97 51.7358 108.626 49.9106L116.655 28.562H119.978L104.72 68.2754C103.981 70.2031 103.171 71.8335 102.29 73.1665C101.408 74.52 100.372 75.5352 99.1826 76.2119C97.9932 76.9092 96.5576 77.2578 94.876 77.2578C94.1172 77.2578 93.4302 77.1963 92.8149 77.0732C92.1997 76.9707 91.605 76.8271 91.0308 76.6426V73.9663C91.564 74.1304 92.1074 74.2637 92.6611 74.3662C93.2354 74.4893 93.8608 74.5508 94.5376 74.5508C95.7065 74.5508 96.7114 74.3047 97.5522 73.8125C98.4136 73.3408 99.1826 72.6025 99.8594 71.5977C100.536 70.5928 101.172 69.311 101.767 67.7524L104.043 61.8154L91.0308 28.562ZM153.2 45.2349C153.2 47.8188 152.882 50.1772 152.247 52.3101C151.611 54.4224 150.667 56.2476 149.417 57.7856C148.166 59.3237 146.607 60.5132 144.741 61.354C142.895 62.1948 140.742 62.6152 138.281 62.6152C135.943 62.6152 133.861 62.2051 132.036 61.3848C130.211 60.5439 128.663 59.3545 127.391 57.8164C126.14 56.2783 125.187 54.4531 124.53 52.3408C123.874 50.208 123.546 47.8394 123.546 45.2349C123.546 41.646 124.141 38.5596 125.33 35.9756C126.54 33.3711 128.263 31.3818 130.498 30.0078C132.754 28.6133 135.451 27.916 138.588 27.916C141.829 27.916 144.525 28.6543 146.679 30.1309C148.853 31.5869 150.483 33.6172 151.57 36.2217C152.657 38.8262 153.2 41.8306 153.2 45.2349ZM126.745 45.2349C126.745 48.1675 127.166 50.731 128.006 52.9253C128.847 55.1196 130.119 56.832 131.821 58.0625C133.543 59.293 135.717 59.9082 138.342 59.9082C141.029 59.9082 143.233 59.293 144.956 58.0625C146.679 56.832 147.95 55.1094 148.771 52.8945C149.591 50.6797 150.001 48.1265 150.001 45.2349C150.001 42.4253 149.611 39.9233 148.832 37.729C148.053 35.5347 146.822 33.812 145.141 32.561C143.459 31.2896 141.265 30.6538 138.558 30.6538C134.682 30.6538 131.739 31.9458 129.729 34.5298C127.74 37.1138 126.745 40.6821 126.745 45.2349ZM188.422 28.562V62H185.9L185.438 55.9707H185.254C184.68 57.2012 183.87 58.3188 182.824 59.3237C181.778 60.3286 180.496 61.1284 178.979 61.7231C177.461 62.3179 175.697 62.6152 173.688 62.6152C171.124 62.6152 168.971 62.1743 167.228 61.2925C165.505 60.3901 164.203 59.0366 163.321 57.2319C162.439 55.4272 161.998 53.1714 161.998 50.4644V28.562H165.105V50.1567C165.105 53.4995 165.854 55.9604 167.351 57.5396C168.868 59.1187 171.083 59.9082 173.995 59.9082C176.456 59.9082 178.517 59.4365 180.178 58.4932C181.86 57.5498 183.131 56.1245 183.993 54.2173C184.875 52.2896 185.315 49.8901 185.315 47.019V28.562H188.422ZM212.97 27.9775C213.852 27.9775 214.683 28.0288 215.462 28.1313C216.241 28.2339 216.969 28.3774 217.646 28.562L217.154 31.4229C216.477 31.2383 215.79 31.105 215.093 31.0229C214.396 30.9204 213.647 30.8691 212.847 30.8691C211.268 30.8691 209.853 31.1665 208.602 31.7612C207.372 32.356 206.326 33.207 205.464 34.3145C204.603 35.4219 203.947 36.7549 203.496 38.3135C203.044 39.8721 202.819 41.6152 202.819 43.543V62H199.681V28.562H202.357L202.665 34.8682H202.85C203.362 33.5762 204.08 32.4175 205.003 31.3921C205.946 30.3462 207.084 29.5156 208.417 28.9004C209.75 28.2852 211.268 27.9775 212.97 27.9775Z" fill="black"/>
<defs>
<filter id="filter0_d_0_1" x="98.9237" y="0" width="170.152" height="154" filterUnits="userSpaceOnUse" color-interpolation-filters="sRGB">
<feFlood flood-opacity="0" result="BackgroundImageFix"/>
<feColorMatrix in="SourceAlpha" type="matrix" values="0 0 0 0 0 0 0 0 0 0 0 0 0 0 0 0 0 0 127 0" result="hardAlpha"/>
<feOffset dx="5" dy="4"/>
<feGaussianBlur stdDeviation="4"/>
<feComposite in2="hardAlpha" operator="out"/>
<feColorMatrix type="matrix" values="0 0 0 0 0 0 0 0 0 0 0 0 0 0 0 0 0 0 0.31 0"/>
<feBlend mode="normal" in2="BackgroundImageFix" result="effect1_dropShadow_0_1"/>
<feBlend mode="normal" in="SourceGraphic" in2="effect1_dropShadow_0_1" result="shape"/>
</filter>
</defs>
</svg>
